<?xml version="1.0" encoding="UTF-8"?>
<svg width="40px" height="41px" viewBox="0 0 40 41" version="1.1" xmlns="http://www.w3.org/2000/svg" xmlns:xlink="http://www.w3.org/1999/xlink">
    <title>logo@1x</title>
    <g id="页面-1" stroke="none" stroke-width="1" fill="none" fill-rule="evenodd">
        <g id="登录页面" transform="translate(-701.000000, -202.000000)">
            <g id="编组-3备份" transform="translate(470.000000, 172.000000)">
                <g id="编组-6" transform="translate(81.000000, 30.000000)">
                    <g id="编组备份-21" transform="translate(150.000000, -0.000000)">
                        <g id="编组-13" transform="translate(0.000000, -0.000000)">
                            <g id="logo" transform="translate(0.000000, -0.000000)">
                                <polygon id="Fill-59" fill="#192A4F" points="32.6014797 12.2062318 21.5868561 12.2062318 23.6530926 15.0728984 31.2238453 15.0728984"></polygon>
                                <polygon id="Fill-60" fill="#BE9A5E" points="30.850383 16.5852425 24.7183399 16.5852425 28.3974797 21.6876081"></polygon>
                                <path d="M34.9141249,23.4333715 C34.9141249,23.4333715 28.5136948,41.8957371 6.6921894,38.5869199 C6.6921894,38.5869199 32.4250926,48.1181027 39.8276733,22.8849844 L34.9141249,23.4333715 Z" id="Fill-61" fill="#BE9A5E"></path>
                                <path d="M12.4696088,12.2140167 L24.1921894,29.2918662 C18.8782109,32.955092 12.8726195,32.6462748 10.0412217,31.1834791 C9.08767328,30.7482102 8.13842596,30.0213285 7.42100661,29.263049 C4.64294209,26.3279952 3.67993134,21.7555221 4.44638295,17.8781027 C7.85627543,0.619608098 34.7160604,4.47423175 34.7160604,4.47423175 C22.7835873,-6.91071448 -1.11404715,5.11165111 0.0403614476,21.6914361 C0.062727039,24.2858447 0.796060372,26.6359522 1.71864102,28.5288554 C2.90401736,30.9624038 5.27950123,33.7598232 8.67907113,35.1387479 C18.7483184,39.7447694 26.0498238,33.6927264 30.0795012,28.5744468 L20.1995012,12.2140167 L12.4696088,12.2140167 Z" id="Fill-62" fill="#192A4F"></path>
                            </g>
                        </g>
                    </g>
                </g>
            </g>
        </g>
    </g>
</svg>