<?xml version="1.0" encoding="UTF-8"?>
<svg width="215px" height="35px" viewBox="0 0 215 35" version="1.1" xmlns="http://www.w3.org/2000/svg" xmlns:xlink="http://www.w3.org/1999/xlink">
    <title>logo@1x</title>
    <defs>
        <filter color-interpolation-filters="auto" id="filter-1">
            <feColorMatrix in="SourceGraphic" type="matrix" values="0 0 0 0 1.000000 0 0 0 0 1.000000 0 0 0 0 1.000000 0 0 0 1.000000 0"></feColorMatrix>
        </filter>
    </defs>
    <g id="控件" stroke="none" stroke-width="1" fill="none" fill-rule="evenodd">
        <g id="logo" transform="translate(-22.000000, -15.000000)" filter="url(#filter-1)">
            <g transform="translate(22.000000, 15.104902)" id="编组-13">
                <g id="文字" transform="translate(47.164971, 5.055503)" fill="#192A4F">
                    <path d="M17.0465527,7.80604904 L27.9442466,7.80604904 L27.9442466,6.18887599 L17.0465527,6.18887599 L17.0465527,7.80604904 Z M16.3167492,2.64355769 L28.6141145,2.64355769 L28.6141145,1.02638464 L16.3167492,1.02638464 L16.3167492,2.64355769 Z M15.5246598,13.3424125 L29.4050288,13.3424125 L29.4050288,11.8492756 L15.5246598,11.8492756 L15.5246598,13.3424125 Z" id="Fill-3"></path>
                    <path d="M39.45011,9.42380994 L42.0073603,9.42380994 L42.0073603,7.93067306 L39.45011,7.93067306 L39.45011,9.42380994 Z M39.45011,6.43753619 L42.0073603,6.43753619 L42.0073603,5.00729917 L39.45011,5.00729917 L39.45011,6.43753619 Z M34.702274,6.43753619 L37.1373028,6.43753619 L37.1373028,5.00729917 L34.702274,5.00729917 L34.702274,6.43753619 Z M34.702274,9.05052572 C34.702274,9.17456189 34.6811203,9.29918591 34.6411632,9.42380994 L37.1373028,9.42380994 L37.1373028,7.93067306 L34.702274,7.93067306 L34.702274,9.05052572 Z M39.6939654,2.27027347 L35.7975669,2.27027347 C35.554299,2.68529498 35.1282865,3.07856607 34.5195293,3.45243814 L38.5986726,3.45243814 C39.044076,3.1626285 39.4095654,2.76759386 39.6939654,2.27027347 L39.6939654,2.27027347 Z M31.3535219,4.75805113 L31.3535219,3.5141623 C32.9764826,2.76759386 34.0717755,1.60717961 34.6411632,0.0311560057 L36.9545581,0.0311560057 C36.8722936,0.321553492 36.7718134,0.590788409 36.6495919,0.839448605 L42.2512157,0.839448605 L42.2512157,2.27027347 C41.8445941,2.76759386 41.4597138,3.1626285 41.0948121,3.45243814 L44.138598,3.45243814 L44.138598,11.9738996 C44.1785551,13.4247113 43.4281854,14.1295425 41.8857263,14.0889809 L40.7287351,14.0889809 L40.7287351,12.658156 L41.2769692,12.658156 C41.7640924,12.658156 42.0073603,12.408908 42.0073603,11.9115876 L42.0073603,10.978671 L39.45011,10.978671 L39.45011,13.9020449 L37.1373028,13.9020449 L37.1373028,10.978671 L34.5195293,10.978671 C34.2351293,12.3066222 33.1586397,13.4452861 31.2924111,14.3999531 L31.2924111,12.8450921 C32.1855684,12.0573742 32.5910148,10.8757974 32.5099255,9.29918591 L32.5099255,4.44766677 C32.3888792,4.48881621 32.1855684,4.55112822 31.9023435,4.63401495 C31.6579005,4.67575224 31.4751558,4.71748954 31.3535219,4.75805113 L31.3535219,4.75805113 Z" id="Fill-5"></path>
                    <path d="M78.7108941,12.6775551 L78.7108941,4.32715769 L83.4828219,4.32715769 L83.4828219,3.16909484 L85.8696671,3.16909484 L85.8696671,4.32715769 L90.761466,4.32715769 L90.761466,10.3008809 C90.8002478,11.8451606 90.0246112,12.6164187 88.4351439,12.6164187 L86.9432187,12.6164187 L86.9432187,11.0927137 L87.7188552,11.0927137 C88.3158604,11.0927137 88.5926216,10.8087826 88.5532522,10.2397446 L88.5532522,5.91199904 L85.8696671,5.91199904 L85.8696671,14.1401238 L83.4828219,14.1401238 L83.4828219,5.91199904 L80.9179328,5.91199904 L80.9179328,12.6775551 L78.7108941,12.6775551 Z M78.340704,2.86458897 L78.340704,1.27974763 L83.3036028,1.27974763 L83.3036028,0.0605484638 L85.9889506,0.0605484638 L85.9889506,1.27974763 L91.011785,1.27974763 L91.011785,2.86458897 L78.340704,2.86458897 Z" id="Fill-6"></path>
                    <path d="M97.0838442,14.0183214 L97.0838442,12.4334801 C98.1180263,11.0120608 98.6357049,9.02042784 98.6357049,6.46034473 L97.8001328,6.46034473 L97.8001328,5.05832448 C99.6287548,4.1653816 101.160049,3.23011358 102.394017,2.25487182 L98.2772668,2.25487182 L98.2772668,0.731166789 L105.912586,0.731166789 L105.912586,2.25487182 C104.40127,3.43409724 102.849997,4.34820269 101.259942,4.99777602 L106.449068,4.99777602 L106.449068,11.5193746 C106.528982,13.1441897 105.772737,13.9166235 104.182682,13.8349125 L102.75128,13.8349125 L102.75128,12.4946164 L103.526916,12.4946164 C104.162116,12.5357658 104.46003,12.2106852 104.421249,11.5193746 L104.421249,6.46034473 L103.645612,6.46034473 C103.605655,10.036819 102.452777,12.5557527 100.185803,14.0183214 L100.185803,12.4946164 C101.178853,11.0726093 101.696531,9.06098943 101.737664,6.46034473 L100.544241,6.46034473 C100.503696,9.95569586 99.3502308,12.4746295 97.0838442,14.0183214 L97.0838442,14.0183214 Z M93.2062489,4.20594319 L93.2062489,2.68165031 L94.3403236,2.68165031 L94.3403236,0.060430894 L96.4880143,0.060430894 L96.4880143,2.68165031 L97.5609782,2.68165031 L97.5609782,4.20594319 L96.4880143,4.20594319 L96.4880143,10.3007633 L97.6215014,9.9956696 L97.6215014,11.4582383 C96.2288812,12.0678379 94.6975865,12.4540548 93.0282051,12.6163012 L93.0282051,10.9097751 L93.2062489,10.9097751 C93.5652747,10.8292397 93.9419285,10.7875024 94.3403236,10.7875024 L94.3403236,4.20594319 L93.2062489,4.20594319 Z" id="Fill-7"></path>
                    <path d="M119.633715,7.0700031 L116.531168,7.0700031 L116.531168,7.67960268 L118.142377,7.67960268 C118.339812,8.41088704 118.618336,9.1421714 118.976774,9.87404361 C119.334625,9.1421714 119.552625,8.20807908 119.633715,7.0700031 L119.633715,7.0700031 Z M116.829671,14.0795165 L116.829671,12.5558115 C117.267436,12.1895815 117.643502,11.8239393 117.96257,11.4582971 C117.286239,10.5647664 116.80793,9.52897615 116.531168,8.34975073 L116.531168,14.0795165 L114.443413,14.0795165 L114.443413,0.670089261 L121.481728,0.670089261 L121.481728,2.98621496 C121.560466,4.36824835 120.886485,5.01840952 119.454496,4.93669849 L117.843287,4.93669849 L117.843287,3.53467823 L118.678859,3.53467823 C119.234732,3.57582768 119.493277,3.33245812 119.454496,2.80339387 L119.454496,2.13324583 L116.531168,2.13324583 L116.531168,5.66798285 L121.601599,5.66798285 L121.601599,7.0700031 C121.363032,8.81767866 120.865332,10.2602605 120.110849,11.3977486 C120.587395,11.8451019 121.163834,12.2507178 121.840753,12.61636 L121.840753,14.0795165 C120.72607,13.5098907 119.811759,13.001989 119.096058,12.5558115 C118.49964,13.001989 117.743394,13.5098907 116.829671,14.0795165 L116.829671,14.0795165 Z M110.74445,7.9846964 L111.937872,7.9846964 L111.937872,5.60743438 L110.74445,5.60743438 L110.74445,7.9846964 Z M110.74445,4.26596259 L111.937872,4.26596259 L111.937872,1.95042474 L110.74445,1.95042474 L110.74445,4.26596259 Z M108.358779,14.140065 L108.358779,12.61636 C108.835913,11.9673745 109.053914,10.8492854 109.014545,9.26385618 L109.014545,0.547816635 L113.667777,0.547816635 L113.667777,12.2507178 C113.706559,13.4287675 113.109553,13.9978055 111.877937,13.9578317 L110.74445,13.9578317 L110.74445,12.61636 L111.400215,12.61636 C111.798023,12.6563337 111.977242,12.4946752 111.937872,12.1284452 L111.937872,9.38612881 L110.74445,9.38612881 C110.783231,11.4994465 109.988791,13.0831122 108.358779,14.140065 L108.358779,14.140065 Z" id="Fill-8"></path>
                    <path d="M133.354608,2.37673295 L127.9845,2.37673295 C127.665431,2.62069035 127.328735,2.82467401 126.970884,2.98633253 L128.163719,2.98633253 C128.91879,3.51539678 129.714992,4.00272374 130.549977,4.44890125 C131.543614,3.92160055 132.478491,3.23028994 133.354608,2.37673295 L133.354608,2.37673295 Z M123.988209,14.2013189 L123.988209,12.7987108 C126.453205,12.1091637 127.84465,11.0727856 128.163719,9.69075224 L124.345472,9.69075224 L124.345472,8.16704721 L128.402286,8.16704721 L128.402286,8.10649875 L128.402286,7.00898436 L130.668673,7.00898436 L130.668673,7.80199288 L130.668673,8.16704721 L136.097541,8.16704721 L136.097541,11.7023721 C136.136323,13.246064 135.441776,13.9773483 134.009786,13.896813 L131.80216,13.896813 L131.80216,12.4942049 L132.99617,12.4942049 C133.592,12.4942049 133.869936,12.2108616 133.831155,11.6418236 L133.831155,9.69075224 L130.549977,9.69075224 C130.230908,11.9263426 128.044436,13.4288851 123.988209,14.2013189 L123.988209,14.2013189 Z M137.350899,7.49631131 C134.009786,7.09128324 131.742812,6.68449162 130.549977,6.2777 C129.117987,6.76502696 126.810468,7.1912176 123.630358,7.55744763 L123.630358,6.2777 C125.897333,5.95261941 127.466821,5.62812667 128.342351,5.30304609 C127.466821,4.81454343 126.632425,4.18554483 125.837985,3.41311103 C125.557698,3.49482206 125.10113,3.57594525 124.465343,3.65706843 C124.185644,3.69821787 123.988209,3.73877946 123.86775,3.77875321 L123.86775,2.68182667 C125.458393,2.19391186 126.632425,1.34035488 127.38867,0.121743562 L129.834276,0.121743562 C129.793731,0.203454595 129.734971,0.304564651 129.655057,0.426249428 C129.536361,0.629645239 129.435881,0.772492585 129.356554,0.853027921 L136.156889,0.853027921 L136.156889,2.43786926 C135.043968,3.69821787 133.909306,4.65288491 132.756428,5.30304609 C134.14846,5.70924986 135.680343,6.01375573 137.350899,6.21656369 L137.350899,7.49631131 Z" id="Fill-9"></path>
                    <path d="M143.375421,6.8872408 L148.147349,6.8872408 L148.147349,6.09482012 L143.375421,6.09482012 L143.375421,6.8872408 Z M143.375421,4.93675727 L148.147349,4.93675727 L148.147349,4.1443366 L143.375421,4.1443366 L143.375421,4.93675727 Z M143.375421,2.98627375 L148.147349,2.98627375 L148.147349,2.25440154 L143.375421,2.25440154 L143.375421,2.98627375 Z M146.835231,8.83772432 L146.835231,9.87351455 L148.625071,9.87351455 C148.066847,9.42674918 147.550932,8.89827278 147.073798,8.28926105 L144.390212,8.28926105 C143.950685,8.89827278 143.454748,9.42674918 142.8977,9.87351455 L144.68754,9.87351455 L144.68754,8.83772432 L146.835231,8.83772432 Z M139.438478,2.25498939 L139.438478,0.852969136 L141.167795,0.852969136 L141.167795,-1.93267624e-13 L143.375421,-1.93267624e-13 L143.375421,0.852969136 L148.147349,0.852969136 L148.147349,-1.93267624e-13 L150.354975,-1.93267624e-13 L150.354975,0.852969136 L152.204163,0.852969136 L152.204163,2.25498939 L150.354975,2.25498939 L150.354975,6.8872408 L152.562601,6.8872408 L152.562601,8.28926105 L149.519991,8.28926105 C150.116408,9.10225644 151.130024,9.79297921 152.562601,10.3614294 L152.562601,11.6417648 C151.329222,11.2755348 150.274474,10.8699189 149.400707,10.4219778 L149.400707,11.1532622 L146.835231,11.1532622 L146.835231,12.3119129 L151.608333,12.3119129 L151.608333,13.5916605 L139.97496,13.5916605 L139.97496,12.3119129 L144.68754,12.3119129 L144.68754,11.1532622 L142.063303,11.1532622 L142.063303,10.4219778 C141.228318,10.8699189 140.193549,11.2755348 138.960756,11.6417648 L138.960756,10.3614294 C140.393334,9.79297921 141.405775,9.10225644 142.004542,8.28926105 L138.960756,8.28926105 L138.960756,6.8872408 L141.167795,6.8872408 L141.167795,2.25498939 L139.438478,2.25498939 Z" id="Fill-10"></path>
                    <path d="M160.973087,13.7134629 C159.541098,13.7534366 158.845375,13.0832885 158.884745,11.7024309 L158.884745,3.77881199 L158.289502,3.77881199 L158.289502,2.31565542 L158.884745,2.31565542 L158.884745,0.974771483 L160.913152,0.974771483 L160.913152,2.31565542 L162.10775,2.31565542 L162.10775,0.0606660336 L164.075634,0.0606660336 L164.075634,2.31565542 L167.355636,2.31565542 L167.355636,7.61864273 C167.436138,9.08121144 166.779197,9.77252206 165.387752,9.69081103 L164.492832,9.69081103 L164.492832,8.28879077 L164.790747,8.28879077 C165.229099,8.32994021 165.427709,8.10596968 165.387752,7.61864273 L165.387752,3.77881199 L164.075634,3.77881199 L164.075634,11.1533797 L162.10775,11.1533797 L162.10775,3.77881199 L160.913152,3.77881199 L160.913152,11.397925 C160.873195,12.0886478 161.191088,12.4137284 161.868007,12.3725789 L165.268469,12.3725789 C165.865474,12.4137284 166.142235,12.1286215 166.103453,11.5196098 L166.103453,10.9094223 L167.833358,10.9094223 L167.833358,11.885252 C167.872727,13.143837 167.216374,13.7534366 165.865474,13.7134629 L160.973087,13.7134629 Z M154.232688,4.20559048 L154.232688,2.6812976 L155.246892,2.6812976 L155.246892,0.0606660336 L157.214776,0.0606660336 L157.214776,2.6812976 L158.110283,2.6812976 L158.110283,4.20559048 L157.214776,4.20559048 L157.214776,10.3615469 C157.373429,10.3215732 157.592605,10.2604369 157.871129,10.1787258 C158.070326,10.0976026 158.228979,10.0364663 158.34885,9.99531689 L158.34885,11.4584735 C157.194797,12.1092225 155.783374,12.5160141 154.112817,12.6776726 L154.112817,11.031695 C154.550581,10.9505718 154.927823,10.8894355 155.246892,10.8488739 L155.246892,4.20559048 L154.232688,4.20559048 Z" id="Fill-11"></path>
                    <polygon id="Fill-12" points="47.1165724 2.62121942 49.1496804 2.62121942 49.1496804 0.484387711 47.1165724 0.484387711"></polygon>
                    <polygon id="Fill-13" points="47.1165724 6.11657054 49.1496804 6.11657054 49.1496804 3.18673031 47.1165724 3.18673031"></polygon>
                    <path d="M56.0933317,3.17667809 L56.0933317,2.89509834 L53.9568055,2.89509834 L53.9568055,3.11848103 C53.9568055,4.29888215 52.6611399,5.04192349 50.1056524,5.5609943 L49.9869565,5.58450827 L49.9869565,6.88600631 L48.7236091,6.88600631 L47.6359551,6.89247265 L47.6359551,11.3818767 L49.7148961,11.3818767 L49.7148961,8.33211526 L56.9970659,8.33211526 L56.9970659,11.3818767 L59.0748317,11.3818767 L59.0748317,6.88600631 L50.2349252,6.88600631 C52.33502,6.72669919 53.9456411,6.16589109 55.0262438,5.21651469 C56.0868681,6.14178927 57.7650636,6.72434779 60.01676,6.94890617 L60.178351,6.96536595 L60.178351,5.60508299 L60.0625931,5.58098117 C57.463623,5.02428801 56.1285879,4.27948312 56.0933317,3.17667809" id="Fill-14"></path>
                    <path d="M54.5973521,9.45096857 L54.5973521,8.66971703 L52.4038283,8.66971703 L52.4044159,9.46154985 C52.512535,11.0099445 50.678037,12.0228087 46.9520434,12.469574 L46.8227706,12.4866216 L46.8227706,13.8680672 L46.980836,13.856898 C50.0328484,13.6305761 52.2363614,13.0039289 53.5337898,11.9957676 C54.9316984,13.0039289 57.0547098,13.6305761 59.8470014,13.856898 L60.0062419,13.8698307 L60.0062419,12.5483458 L59.8804948,12.5283589 C56.2673211,11.9693144 54.489233,10.9376391 54.5973521,9.45096857" id="Fill-15"></path>
                    <path d="M70.1550939,0.288810294 L67.9615702,0.288810294 L67.9615702,1.87541519 L62.7260233,1.87541519 L62.7260233,3.43674256 L64.5840255,3.43674256 C64.6198693,4.62596142 64.5041114,7.10550919 62.7230853,11.1698983 L62.7230853,13.9051605 C64.2308758,12.3314883 66.2116871,9.51686646 66.7522823,3.43674256 L67.9615702,3.43674256 L67.9615702,9.93600291 L65.5841266,9.93600291 L65.5841266,11.498506 L67.9615702,11.498506 L67.9615702,13.9727631 L70.1550939,13.9727631 L70.1550939,11.498506 L72.6341929,11.498506 L72.6341929,9.93600291 L70.1550939,9.93600291 L70.1550939,3.43674256 L71.3825976,3.43674256 C71.9249556,9.51686646 73.9057668,12.3314883 75.4123821,13.9051605 L75.4123821,11.1698983 C73.6989304,7.22366687 73.6219544,4.62596142 73.659561,3.43674256 L75.4488135,3.43674256 L75.4488135,1.87541519 L70.1550939,1.87541519 L70.1550939,0.288810294 Z" id="Fill-16"></path>
                    <path d="M52.4627062,2.49841773 L57.7869812,2.49841773 L57.7869812,4.07150209 L59.796585,4.07150209 L59.796585,1.11520865 L59.7801321,1.11520865 L59.7801321,1.09874887 L52.737117,1.09874887 C52.7688476,0.834216748 52.7929394,0.555576244 52.8035162,0.258712417 L50.6940198,0.258712417 C50.6940198,0.258712417 50.6076421,2.45491689 49.653374,4.06797499 L51.8151672,4.06797499 C51.8151672,4.06797499 52.1753681,3.52421452 52.4627062,2.49841773" id="Fill-17"></path>
                    <path d="M1.3908574,22.8314149 L5.30247063e-13,20.0173809 L0.55646048,20.0173809 L1.17579453,21.3582649 C1.33385986,21.6992174 1.47312188,22.0219466 1.64352689,22.3699533 L1.66879384,22.3699533 C1.83332281,22.0219466 1.99138814,21.6992174 2.1371138,21.3582649 L2.76232388,20.0173809 L3.29998105,20.0173809 L1.90912365,22.8314149 L1.90912365,24.6461052 L1.3908574,24.6461052 L1.3908574,22.8314149 Z" id="Fill-18"></path>
                    <path d="M6.04491187,22.7746286 L5.80458205,22.0221817 C5.62771341,21.4972324 5.48198775,20.9975606 5.32392242,20.4538001 L5.29865547,20.4538001 C5.14764138,21.004027 4.99545208,21.4972324 4.82504708,22.0221817 L4.58471726,22.7746286 L6.04491187,22.7746286 Z M6.17771025,23.1855352 L4.45191888,23.1855352 L3.97772288,24.6463404 L3.45299299,24.6463404 L5.03364631,20.0176161 L5.6089101,20.0176161 L7.19543945,24.6463404 L6.63897897,24.6463404 L6.17771025,23.1855352 Z" id="Fill-19"></path>
                    <path d="M8.076022,20.0173221 L8.61367917,20.0173221 L10.3647375,23.014765 L10.8636128,23.9635536 L10.8953434,23.9635536 C10.8636128,23.5015041 10.8260062,22.9959538 10.8260062,22.5215596 L10.8260062,20.0173221 L11.3248815,20.0173221 L11.3248815,24.6466343 L10.7813483,24.6466343 L9.0432173,21.6486036 L8.53729072,20.7004029 L8.50556013,20.7004029 C8.53082708,21.1618645 8.5690213,21.6297924 8.5690213,22.110653 L8.5690213,24.6466343 L8.076022,24.6466343 L8.076022,20.0173221 Z" id="Fill-20"></path>
                    <path d="M12.5536191,22.3319782 C12.5536191,20.8458955 13.4320863,19.9353172 14.6519511,19.9353172 C15.2906761,19.9353172 15.7078745,20.2257147 15.9734713,20.4978888 L15.6826076,20.8394292 C15.4487414,20.5931204 15.145538,20.3967788 14.6648784,20.3967788 C13.7041467,20.3967788 13.0906887,21.1304145 13.0906887,22.3196334 C13.0906887,23.5141429 13.6594889,24.2671777 14.6648784,24.2671777 C15.0127396,24.2671777 15.3541373,24.1596013 15.5433456,23.9761923 L15.5433456,22.7111409 L14.5385436,22.7111409 L14.5385436,22.2749568 L16.0304688,22.2749568 L16.0304688,24.1972236 C15.7331415,24.5070201 15.2336785,24.7286393 14.6143445,24.7286393 C13.4003557,24.7286393 12.5536191,23.8304057 12.5536191,22.3319782" id="Fill-21"></path>
                    <polygon id="Fill-22" points="18.1880312 20.4599726 16.7783705 20.4599726 16.7783705 20.0173221 20.1347615 20.0173221 20.1347615 20.4599726 18.7192248 20.4599726 18.7192248 24.6466343 18.1880312 24.6466343"></polygon>
                    <polygon id="Fill-23" points="20.4719284 24.3363675 22.9686555 20.4600901 20.6993309 20.4600901 20.6993309 20.0174397 23.6132565 20.0174397 23.6132565 20.3272362 21.122993 24.2035136 23.6385234 24.2035136 23.6385234 24.646164 20.4719284 24.646164"></polygon>
                    <polygon id="Fill-24" points="24.8037411 20.0173221 27.4397302 20.0173221 27.4397302 20.4599726 25.328471 20.4599726 25.328471 21.9842654 27.1047963 21.9842654 27.1047963 22.4269159 25.328471 22.4269159 25.328471 24.2039839 27.5090675 24.2039839 27.5090675 24.6466343 24.8037411 24.6466343"></polygon>
                    <path d="M30.8493581,22.2180531 L31.6584881,22.2180531 C32.4041569,22.2180531 32.8148917,21.9211892 32.8148917,21.3010084 C32.8148917,20.6684827 32.4041569,20.440985 31.6584881,20.440985 L30.8493581,20.440985 L30.8493581,22.2180531 Z M32.8718892,24.6464579 L31.7154856,22.6477708 L30.8493581,22.6477708 L30.8493581,24.6464579 L30.3246282,24.6464579 L30.3246282,20.0171458 L31.7407526,20.0171458 C32.6826809,20.0171458 33.3396216,20.3528077 33.3396216,21.3010084 C33.3396216,22.0281778 32.9165471,22.452017 32.2654824,22.5978036 L33.4600803,24.6464579 L32.8718892,24.6464579 Z" id="Fill-25"></path>
                    <polygon id="Fill-26" points="34.4983756 24.6467519 35.0231055 24.6467519 35.0231055 20.0174397 34.4983756 20.0174397"></polygon>
                    <path d="M35.890467,20.0173221 L36.4404638,20.0173221 L37.2178632,22.5721146 C37.3823922,23.1223414 37.4899236,23.5585255 37.6732559,24.102286 L37.6985228,24.102286 C37.8753915,23.5585255 37.9887989,23.1223414 38.1597915,22.5721146 L38.9248513,20.0173221 L39.4554572,20.0173221 L37.9764593,24.6466343 L37.3759285,24.6466343 L35.890467,20.0173221 Z" id="Fill-27"></path>
                    <polygon id="Fill-28" points="40.3170014 20.0173221 42.9529905 20.0173221 42.9529905 20.4599726 40.8417313 20.4599726 40.8417313 21.9842654 42.6180565 21.9842654 42.6180565 22.4269159 40.8417313 22.4269159 40.8417313 24.2039839 43.0223277 24.2039839 43.0223277 24.6466343 40.3170014 24.6466343"></polygon>
                    <path d="M44.7438296,22.2180531 L45.5529596,22.2180531 C46.2986284,22.2180531 46.7099508,21.9211892 46.7099508,21.3010084 C46.7099508,20.6684827 46.2986284,20.440985 45.5529596,20.440985 L44.7438296,20.440985 L44.7438296,22.2180531 Z M46.7663607,24.6464579 L45.6099571,22.6477708 L44.7438296,22.6477708 L44.7438296,24.6464579 L44.2190997,24.6464579 L44.2190997,20.0171458 L45.635224,20.0171458 C46.5771524,20.0171458 47.2340931,20.3528077 47.2340931,21.3010084 C47.2340931,22.0281778 46.8110186,22.452017 46.1599539,22.5978036 L47.3545518,24.6464579 L46.7663607,24.6464579 Z" id="Fill-29"></path>
                    <path d="M51.105636,24.2163875 C52.230309,24.2163875 52.7744298,23.4950966 52.7744298,22.3129319 C52.7744298,21.1301794 52.230309,20.4470987 51.105636,20.4470987 L50.5362483,20.4470987 L50.5362483,24.2163875 L51.105636,24.2163875 Z M50.012106,20.0173809 L51.1497063,20.0173809 C52.5717066,20.0173809 53.3114994,20.8585931 53.3114994,22.3129319 C53.3114994,23.7672707 52.5717066,24.6461052 51.1685096,24.6461052 L50.012106,24.6461052 L50.012106,20.0173809 Z" id="Fill-30"></path>
                    <polygon id="Fill-31" points="54.540002 20.0173221 57.1759911 20.0173221 57.1759911 20.4599726 55.0653195 20.4599726 55.0653195 21.9842654 56.8410571 21.9842654 56.8410571 22.4269159 55.0653195 22.4269159 55.0653195 24.2039839 57.2453283 24.2039839 57.2453283 24.6466343 54.540002 24.6466343"></polygon>
                    <polygon id="Fill-32" points="58.4420415 20.0173221 58.967359 20.0173221 58.967359 24.2039839 61.0086935 24.2039839 61.0086935 24.6466343 58.4420415 24.6466343"></polygon>
                    <polygon id="Fill-33" points="62.160455 20.4599726 60.7513819 20.4599726 60.7513819 20.0173221 64.1071853 20.0173221 64.1071853 20.4599726 62.6916485 20.4599726 62.6916485 24.6466343 62.160455 24.6466343"></polygon>
                    <path d="M66.8527037,22.7746286 L66.6123739,22.0221817 C66.4355052,21.4972324 66.2897796,20.9975606 66.1317143,20.4538001 L66.1064473,20.4538001 C65.9554332,21.004027 65.8032439,21.4972324 65.6328389,22.0221817 L65.3925091,22.7746286 L66.8527037,22.7746286 Z M66.9855021,23.1855352 L65.2597107,23.1855352 L64.7855147,24.6463404 L64.2607848,24.6463404 L65.8408505,20.0176161 L66.4167019,20.0176161 L68.0032313,24.6463404 L67.4467708,24.6463404 L66.9855021,23.1855352 Z" id="Fill-34"></path>
                    <path d="M70.230836,22.3319782 C70.230836,20.8458955 71.0904999,19.9353172 72.2598308,19.9353172 C72.8227549,19.9353172 73.2528806,20.2069035 73.5178898,20.4978888 L73.2276137,20.8394292 C72.9866963,20.5737214 72.6705656,20.3967788 72.2662944,20.3967788 C71.3625603,20.3967788 70.7679056,21.1304145 70.7679056,22.3196334 C70.7679056,23.5141429 71.3372933,24.2671777 72.2474911,24.2671777 C72.6958325,24.2671777 73.0372302,24.0773024 73.3410211,23.735762 L73.6318849,24.0643697 C73.2716839,24.4882089 72.8227549,24.7286393 72.2222241,24.7286393 C71.0775726,24.7286393 70.230836,23.8304057 70.230836,22.3319782" id="Fill-35"></path>
                    <path d="M76.699645,22.7746286 L76.4593152,22.0221817 C76.2824466,21.4972324 76.1367209,20.9975606 75.9786556,20.4538001 L75.9533886,20.4538001 C75.8023745,21.004027 75.6501852,21.4972324 75.4797802,22.0221817 L75.2394504,22.7746286 L76.699645,22.7746286 Z M76.8324434,23.1855352 L75.106652,23.1855352 L74.632456,24.6463404 L74.1077261,24.6463404 L75.6877919,20.0176161 L76.2636432,20.0176161 L77.8501726,24.6463404 L77.2937121,24.6463404 L76.8324434,23.1855352 Z" id="Fill-36"></path>
                    <path d="M79.9630184,22.344617 C80.809755,22.344617 81.2146137,22.0471653 81.2146137,21.3582061 C81.2146137,20.6621927 80.784488,20.4411614 79.9377514,20.4411614 L79.2549562,20.4411614 L79.2549562,22.344617 L79.9630184,22.344617 Z M78.7302263,20.0173221 L80.0135523,20.0173221 C81.0565484,20.0173221 81.73288,20.3653288 81.73288,21.3582061 C81.73288,22.3193395 81.0565484,22.7743347 80.0388192,22.7743347 L79.2549562,22.7743347 L79.2549562,24.6466343 L78.7302263,24.6466343 L78.7302263,20.0173221 Z" id="Fill-37"></path>
                    <polygon id="Fill-38" points="82.8980977 24.6467519 83.4228276 24.6467519 83.4228276 20.0174397 82.8980977 20.0174397"></polygon>
                    <polygon id="Fill-39" points="85.8889993 20.4599726 84.4793386 20.4599726 84.4793386 20.0173221 87.8357296 20.0173221 87.8357296 20.4599726 86.4196052 20.4599726 86.4196052 24.6466343 85.8889993 24.6466343"></polygon>
                    <path d="M90.5811892,22.7746286 L90.3408594,22.0221817 C90.1639908,21.4972324 90.0182651,20.9975606 89.8601998,20.4538001 L89.8349328,20.4538001 C89.6839187,21.004027 89.5317294,21.4972324 89.3613244,22.0221817 L89.1209946,22.7746286 L90.5811892,22.7746286 Z M90.7139876,23.1855352 L88.9881962,23.1855352 L88.5140002,24.6463404 L87.9892704,24.6463404 L89.5693361,20.0176161 L90.1451875,20.0176161 L91.7317168,24.6463404 L91.1752563,24.6463404 L90.7139876,23.1855352 Z" id="Fill-40"></path>
                    <polygon id="Fill-41" points="92.6120056 20.0173221 93.1373231 20.0173221 93.1373231 24.2039839 95.1786575 24.2039839 95.1786575 24.6466343 92.6120056 24.6466343"></polygon>
                    <path d="M97.8298656,20.0173221 L98.4744666,20.0173221 L99.3846643,22.5468371 C99.4986594,22.8754448 99.6056032,23.2046403 99.7201859,23.533248 L99.7519165,23.533248 C99.865324,23.2046403 99.9663917,22.8754448 100.073336,22.5468371 L100.977657,20.0173221 L101.622258,20.0173221 L101.622258,24.6466343 L101.135723,24.6466343 L101.135723,21.9713328 C101.135723,21.5792374 101.173329,21.0354769 101.198596,20.6304488 L101.173329,20.6304488 L100.806665,21.6803474 L99.9029306,24.17224 L99.5427296,24.17224 L98.6325319,21.6803474 L98.2658673,20.6304488 L98.2406004,20.6304488 C98.2658673,21.0354769 98.3040615,21.5792374 98.3040615,21.9713328 L98.3040615,24.6466343 L97.8298656,24.6466343 L97.8298656,20.0173221 Z" id="Fill-42"></path>
                    <path d="M105.101458,22.7746286 L104.861129,22.0221817 C104.68426,21.4972324 104.539122,20.9975606 104.380469,20.4538001 L104.355202,20.4538001 C104.204188,21.004027 104.051999,21.4972324 103.881594,22.0221817 L103.641264,22.7746286 L105.101458,22.7746286 Z M105.234257,23.1855352 L103.508465,23.1855352 L103.034269,24.6463404 L102.510127,24.6463404 L104.089605,20.0176161 L104.665457,20.0176161 L106.251986,24.6463404 L105.695526,24.6463404 L105.234257,23.1855352 Z" id="Fill-43"></path>
                    <path d="M107.657298,22.2180531 L108.466428,22.2180531 C109.212097,22.2180531 109.62342,21.9211892 109.62342,21.3010084 C109.62342,20.6684827 109.212097,20.440985 108.466428,20.440985 L107.657298,20.440985 L107.657298,22.2180531 Z M109.67983,24.6464579 L108.523426,22.6477708 L107.657298,22.6477708 L107.657298,24.6464579 L107.132569,24.6464579 L107.132569,20.0171458 L108.548693,20.0171458 C109.490034,20.0171458 110.147562,20.3528077 110.147562,21.3010084 C110.147562,22.0281778 109.724487,22.452017 109.072835,22.5978036 L110.267433,24.6464579 L109.67983,24.6464579 Z" id="Fill-44"></path>
                    <polygon id="Fill-45" points="111.306845 20.0173221 111.831575 20.0173221 111.831575 22.4016383 111.843914 22.4016383 113.847642 20.0173221 114.448173 20.0173221 112.994442 21.7691126 114.663236 24.6466343 114.075045 24.6466343 112.659508 22.1800192 111.831575 23.1540853 111.831575 24.6466343 111.306845 24.6466343"></polygon>
                    <polygon id="Fill-46" points="115.556628 20.0173221 118.19203 20.0173221 118.19203 20.4599726 116.081358 20.4599726 116.081358 21.9842654 117.857096 21.9842654 117.857096 22.4269159 116.081358 22.4269159 116.081358 24.2039839 118.261954 24.2039839 118.261954 24.6466343 115.556628 24.6466343"></polygon>
                    <polygon id="Fill-47" points="120.425628 20.4599726 119.015967 20.4599726 119.015967 20.0173221 122.372358 20.0173221 122.372358 20.4599726 120.956234 20.4599726 120.956234 24.6466343 120.425628 24.6466343"></polygon>
                    <path d="M124.701795,24.0392685 L125.017925,23.678917 C125.352272,24.0392685 125.820592,24.2667662 126.313591,24.2667662 C126.945265,24.2667662 127.33132,23.9446248 127.33132,23.4702306 C127.33132,22.9705588 126.983459,22.8124273 126.540993,22.6166736 L125.871125,22.3192219 C125.441587,22.135813 124.929197,21.8195501 124.929197,21.1429357 C124.929197,20.4410438 125.536191,19.9354935 126.357661,19.9354935 C126.914122,19.9354935 127.38773,20.1694575 127.703861,20.5045315 L127.425924,20.8396055 C127.141524,20.5674314 126.800127,20.3969551 126.357661,20.3969551 C125.820592,20.3969551 125.460391,20.6685414 125.460391,21.1053134 C125.460391,21.5791198 125.877589,21.7566502 126.231914,21.9083153 L126.901194,22.1928343 C127.432388,22.4267983 127.862514,22.7430611 127.862514,23.4320204 C127.862514,24.1597776 127.261395,24.7282278 126.307127,24.7282278 C125.649599,24.7282278 125.10019,24.4631078 124.701795,24.0392685" id="Fill-48"></path>
                    <polygon id="Fill-49" points="128.995766 20.0173221 131.631167 20.0173221 131.631167 20.4599726 129.520496 20.4599726 129.520496 21.9842654 131.296233 21.9842654 131.296233 22.4269159 129.520496 22.4269159 129.520496 24.2039839 131.701092 24.2039839 131.701092 24.6466343 128.995766 24.6466343"></polygon>
                    <path d="M133.4223,22.2180531 L134.23143,22.2180531 C134.977099,22.2180531 135.388421,21.9211892 135.388421,21.3010084 C135.388421,20.6684827 134.977099,20.440985 134.23143,20.440985 L133.4223,20.440985 L133.4223,22.2180531 Z M135.444831,24.6464579 L134.288428,22.6477708 L133.4223,22.6477708 L133.4223,24.6464579 L132.89757,24.6464579 L132.89757,20.0171458 L134.313695,20.0171458 C135.255035,20.0171458 135.912564,20.3528077 135.912564,21.3010084 C135.912564,22.0281778 135.489489,22.452017 134.837837,22.5978036 L136.032435,24.6464579 L135.444831,24.6464579 Z" id="Fill-50"></path>
                    <path d="M136.496348,20.0173221 L137.046344,20.0173221 L137.823744,22.5721146 C137.988273,23.1223414 138.095804,23.5585255 138.278549,24.102286 L138.304403,24.102286 C138.481272,23.5585255 138.59468,23.1223414 138.765672,22.5721146 L139.530732,20.0173221 L140.061338,20.0173221 L138.58234,24.6466343 L137.981809,24.6466343 L136.496348,20.0173221 Z" id="Fill-51"></path>
                    <polygon id="Fill-52" points="140.922764 24.6467519 141.447494 24.6467519 141.447494 20.0174397 140.922764 20.0174397"></polygon>
                    <path d="M142.674763,22.3319782 C142.674763,20.8458955 143.534427,19.9353172 144.703758,19.9353172 C145.266094,19.9353172 145.69622,20.2069035 145.961817,20.4978888 L145.670953,20.8394292 C145.430623,20.5737214 145.114493,20.3967788 144.710221,20.3967788 C143.806487,20.3967788 143.211833,21.1304145 143.211833,22.3196334 C143.211833,23.5141429 143.78122,24.2671777 144.691418,24.2671777 C145.139759,24.2671777 145.481157,24.0773024 145.784948,23.735762 L146.075224,24.0643697 C145.715023,24.4882089 145.266094,24.7286393 144.666151,24.7286393 C143.5215,24.7286393 142.674763,23.8304057 142.674763,22.3319782" id="Fill-53"></path>
                    <polygon id="Fill-54" points="147.164994 20.0173221 149.800395 20.0173221 149.800395 20.4599726 147.689723 20.4599726 147.689723 21.9842654 149.465461 21.9842654 149.465461 22.4269159 147.689723 22.4269159 147.689723 24.2039839 149.87032 24.2039839 149.87032 24.6466343 147.164994 24.6466343"></polygon>
                    <path d="M154.044655,24.2290263 C154.866125,24.2290263 155.365588,23.9315746 155.365588,23.2737714 C155.365588,22.6794559 154.885515,22.4078695 154.044655,22.4078695 L153.210258,22.4078695 L153.210258,24.2290263 L154.044655,24.2290263 Z M153.91832,22.0028415 C154.752717,22.0028415 155.087651,21.6995113 155.087651,21.2127722 C155.087651,20.6431464 154.702183,20.4344599 153.950051,20.4344599 L153.210258,20.4344599 L153.210258,22.0028415 L153.91832,22.0028415 Z M152.685528,20.017087 L154.025852,20.017087 C154.967192,20.017087 155.605917,20.3462825 155.605917,21.1492845 C155.605917,21.6107461 155.359124,22.0093078 154.916658,22.1550944 L154.916658,22.1803719 C155.486046,22.2873605 155.87739,22.6606447 155.87739,23.2931704 C155.87739,24.1972824 155.163452,24.6463992 154.126919,24.6463992 L152.685528,24.6463992 L152.685528,20.017087 Z" id="Fill-55"></path>
                    <path d="M158.996272,22.7746286 L158.75653,22.0221817 C158.579073,21.4972324 158.433935,20.9975606 158.27587,20.4538001 L158.250603,20.4538001 C158.099001,21.004027 157.9474,21.4972324 157.776407,22.0221817 L157.536665,22.7746286 L158.996272,22.7746286 Z M159.129658,23.1855352 L157.403866,23.1855352 L156.929083,24.6463404 L156.404941,24.6463404 L157.985006,20.0176161 L158.56027,20.0176161 L160.146799,24.6463404 L159.590926,24.6463404 L159.129658,23.1855352 Z" id="Fill-56"></path>
                    <path d="M160.686219,24.0392685 L161.00235,23.678917 C161.336696,24.0392685 161.805016,24.2667662 162.298016,24.2667662 C162.929689,24.2667662 163.315745,23.9446248 163.315745,23.4702306 C163.315745,22.9705588 162.967884,22.8124273 162.525418,22.6166736 L161.85555,22.3192219 C161.426012,22.135813 160.913622,21.8195501 160.913622,21.1429357 C160.913622,20.4410438 161.520616,19.9354935 162.342086,19.9354935 C162.898546,19.9354935 163.372155,20.1694575 163.688285,20.5045315 L163.410349,20.8396055 C163.125949,20.5674314 162.784551,20.3969551 162.342086,20.3969551 C161.805016,20.3969551 161.444815,20.6685414 161.444815,21.1053134 C161.444815,21.5791198 161.862014,21.7566502 162.216339,21.9083153 L162.885619,22.1928343 C163.416225,22.4267983 163.846938,22.7430611 163.846938,23.4320204 C163.846938,24.1597776 163.24582,24.7282278 162.291552,24.7282278 C161.634024,24.7282278 161.084614,24.4631078 160.686219,24.0392685" id="Fill-57"></path>
                    <polygon id="Fill-58" points="164.98019 20.0173221 167.615592 20.0173221 167.615592 20.4599726 165.50492 20.4599726 165.50492 21.9842654 167.280658 21.9842654 167.280658 22.4269159 165.50492 22.4269159 165.50492 24.2039839 167.685517 24.2039839 167.685517 24.6466343 164.98019 24.6466343"></polygon>
                    <path d="M4.9314033,5.00735796 L4.9314033,3.70056927 C7.72722058,2.89521591 9.23324826,2.33264426 10.2891717,0.715471217 L13.028579,0.715471217 C11.4861199,3.28672346 8.78725723,4.71754832 4.9314033,5.00735796 L4.9314033,5.00735796 Z M0.000235041386,7.24647542 L0.000235041386,5.69161438 L1.82650661,5.69161438 L1.82650661,0.0929389527 L4.13990144,0.0929389527 L4.13990144,5.69161438 L13.7589701,5.69161438 L13.7589701,7.24647542 L8.21904468,7.24647542 C9.11161434,9.69369149 11.1793909,11.0939482 13.698447,12.3472426 L13.698447,13.5911314 C9.59815001,12.8028257 6.96098567,10.6889201 5.78342833,7.24647542 L4.13990144,7.24647542 L4.13990144,11.4760502 C4.87029254,11.2691272 5.82397297,10.9164177 7.0009427,10.4190974 L7.0009427,12.2226186 C5.5407481,13.0097486 3.81436912,13.6734303 1.82650661,14.2130759 L1.82650661,7.24647542 L0.000235041386,7.24647542 Z" id="Fill-1"></path>
                </g>
                <g id="logo">
                    <polygon id="Fill-59" fill="#192A4F" points="27.4579974 10.2847731 18.181133 10.2847731 19.9213828 12.70018 26.2977102 12.70018"></polygon>
                    <polygon id="Fill-60" fill="#BE9A5E" points="25.9831683 13.9744567 20.8185678 13.9744567 23.9172557 18.2736273"></polygon>
                    <path d="M29.4057803,19.7445793 C29.4057803,19.7445793 24.0151357,35.3006694 5.63637359,32.5127136 C5.63637359,32.5127136 27.3094386,40.5435339 33.5441262,19.2825172 L29.4057803,19.7445793 Z" id="Fill-61" fill="#BE9A5E"></path>
                    <path d="M10.5022989,10.2913326 L20.3754271,24.6808519 C15.8998264,27.7674266 10.8417273,27.5072223 8.45703449,26.2746943 C7.65392588,25.9079439 6.85443977,25.2954851 6.2502065,24.656571 C3.91043269,22.1835423 3.09935457,18.3308505 3.74488437,15.0637997 C6.61680366,0.522071746 29.2389641,3.7699152 29.2389641,3.7699152 C19.1890578,-5.82285607 -0.938285752,4.30699442 0.0339936879,18.2768526 C0.0528306964,20.4628593 0.670467226,22.4430218 1.44749383,24.0379514 C2.44585528,26.0884199 4.44656293,28.4454801 7.30978823,29.6073397 C15.7904268,33.4882988 21.9399856,28.3889454 25.3339074,24.076366 L17.0126589,10.2913326 L10.5022989,10.2913326 Z" id="Fill-62" fill="#192A4F"></path>
                </g>
            </g>
        </g>
    </g>
</svg>